<svg width="91" height="13" viewBox="0 0 91 13" fill="none" xmlns="http://www.w3.org/2000/svg">
<path d="M0.409091 12H1.81818V7.75H4.36364C7.07386 7.75 8.29545 6.10227 8.29545 4.04545C8.29545 1.98864 7.07386 0.363636 4.34091 0.363636H0.409091V12ZM1.81818 6.5V1.61364H4.29545C6.1875 1.61364 6.90909 2.64773 6.90909 4.04545C6.90909 5.44318 6.1875 6.5 4.31818 6.5H1.81818ZM10.5653 12H17.3835V10.75H11.9744V0.363636H10.5653V12ZM20.777 12L21.9474 8.70455H26.652L27.8224 12H29.2997L25.027 0.363636H23.5724L19.2997 12H20.777ZM22.3906 7.45455L24.2543 2.20455H24.3452L26.2088 7.45455H22.3906ZM28.9247 0.363636L33.1293 7.20455V12H34.5384V7.20455L38.7429 0.363636H37.1293L33.902 5.79545H33.7656L30.5384 0.363636H28.9247ZM45.5426 0.363636H44.0653L48.3381 12H49.7926L54.0653 0.363636H52.5881L49.1335 10.1591H48.9972L45.5426 0.363636ZM57.2869 0.363636H55.8778V12H57.2869V0.363636ZM63.7031 12C67.2486 12 69.2486 9.79545 69.2486 6.15909C69.2486 2.54545 67.2486 0.363636 63.8622 0.363636H60.1122V12H63.7031ZM61.5213 10.75V1.61364H63.7713C66.4986 1.61364 67.8849 3.34091 67.8849 6.15909C67.8849 9 66.4986 10.75 63.6122 10.75H61.5213ZM71.6122 12H78.7259V10.75H73.0213V6.79545H78.2713V5.54545H73.0213V1.61364H78.6349V0.363636H71.6122V12ZM90.9929 6.18182C90.9929 2.5 88.8338 0.204545 85.8565 0.204545C82.8793 0.204545 80.7202 2.5 80.7202 6.18182C80.7202 9.86364 82.8793 12.1591 85.8565 12.1591C88.8338 12.1591 90.9929 9.86364 90.9929 6.18182ZM89.6293 6.18182C89.6293 9.20455 87.9702 10.8409 85.8565 10.8409C83.7429 10.8409 82.0838 9.20455 82.0838 6.18182C82.0838 3.15909 83.7429 1.52273 85.8565 1.52273C87.9702 1.52273 89.6293 3.15909 89.6293 6.18182Z" fill="white"/>
</svg>
